# xmcd
#
# Track frame offsets:
# 150
# 18487
# 38012
# 56761
# 75361
# 87750
# 115650
# 137714
# 156026
# 177567
# 192666
# 211715
#
# Disc length: 3024 seconds
#
#
# Revision: 0
# Processed by: cddbd v1.5.2PL0 Copyright (c) Steve Scherf et al.
# Submitted via: FreeRIP 2.96 
#
DISCID=960bce0c
DTITLE=John Mayer - Continuum
DYEAR=2006
DGENRE=Blues
TTITLE0=Belief
TTITLE1=Bold As Love
TTITLE2=Dreaming With A Broken Heart
TTITLE3=Gravity
TTITLE4=I'm Gonna Find Another You
TTITLE5=In Repair
TTITLE6=I Don't Trust Myself With Love
TTITLE7=Slow Dancing In A Burning Room
TTITLE8=Stop This Train
TTITLE9=The Heart Of Life
TTITLE10=Vultures
TTITLE11=Waiting On The World To Change
EXTD=
EXTT0=
EXTT1=
EXTT2=
EXTT3=
EXTT4=
EXTT5=
EXTT6=
EXTT7=
EXTT8=
EXTT9=
EXTT10=
EXTT11=
PLAYORDER=
